ModelForces
version=1
nRows=4
nColumns=155
inDegrees=no

This file contains the forces exerted on a model during a simulation.

A force is a generalized force, meaning that it can be either a force (N) or a torque (Nm).

Units are S.I. units (second, meters, Newtons, ...)
Angles are in degrees.

endheader
time	glut_med1_r	glut_med2_r	glut_med3_r	glut_min1_r	glut_min2_r	glut_min3_r	semimem_r	semiten_r	bifemlh_r	bifemsh_r	sar_r	add_long_r	add_brev_r	add_mag1_r	add_mag2_r	add_mag3_r	tfl_r	pect_r	grac_r	glut_max1_r	glut_max2_r	glut_max3_r	iliacus_r	psoas_r	quad_fem_r	gem_r	peri_r	rect_fem_r	vas_med_r	vas_int_r	vas_lat_r	med_gas_r	lat_gas_r	soleus_r	tib_post_r	flex_dig_r	flex_hal_r	tib_ant_r	per_brev_r	per_long_r	per_tert_r	ext_dig_r	ext_hal_r	glut_med1_l	glut_med2_l	glut_med3_l	glut_min1_l	glut_min2_l	glut_min3_l	semimem_l	semiten_l	bifemlh_l	bifemsh_l	sar_l	add_long_l	add_brev_l	add_mag1_l	add_mag2_l	add_mag3_l	tfl_l	pect_l	grac_l	glut_max1_l	glut_max2_l	glut_max3_l	iliacus_l	psoas_l	quad_fem_l	gem_l	peri_l	rect_fem_l	vas_med_l	vas_int_l	vas_lat_l	med_gas_l	lat_gas_l	soleus_l	tib_post_l	flex_dig_l	flex_hal_l	tib_ant_l	per_brev_l	per_long_l	per_tert_l	ext_dig_l	ext_hal_l	ercspn_r	ercspn_l	intobl_r	intobl_l	extobl_r	extobl_l	femur_lat_meniscii_r.femur_lat_r.force.X	femur_lat_meniscii_r.femur_lat_r.force.Y	femur_lat_meniscii_r.femur_lat_r.force.Z	femur_lat_meniscii_r.femur_lat_r.torque.X	femur_lat_meniscii_r.femur_lat_r.torque.Y	femur_lat_meniscii_r.femur_lat_r.torque.Z	femur_lat_meniscii_r.meniscus_lat_r.force.X	femur_lat_meniscii_r.meniscus_lat_r.force.Y	femur_lat_meniscii_r.meniscus_lat_r.force.Z	femur_lat_meniscii_r.meniscus_lat_r.torque.X	femur_lat_meniscii_r.meniscus_lat_r.torque.Y	femur_lat_meniscii_r.meniscus_lat_r.torque.Z	femur_med_meniscii_r.femur_med_r.force.X	femur_med_meniscii_r.femur_med_r.force.Y	femur_med_meniscii_r.femur_med_r.force.Z	femur_med_meniscii_r.femur_med_r.torque.X	femur_med_meniscii_r.femur_med_r.torque.Y	femur_med_meniscii_r.femur_med_r.torque.Z	femur_med_meniscii_r.meniscus_med_r.force.X	femur_med_meniscii_r.meniscus_med_r.force.Y	femur_med_meniscii_r.meniscus_med_r.force.Z	femur_med_meniscii_r.meniscus_med_r.torque.X	femur_med_meniscii_r.meniscus_med_r.torque.Y	femur_med_meniscii_r.meniscus_med_r.torque.Z	femur_med_tibia_r.tibia_upper_r.force.X	femur_med_tibia_r.tibia_upper_r.force.Y	femur_med_tibia_r.tibia_upper_r.force.Z	femur_med_tibia_r.tibia_upper_r.torque.X	femur_med_tibia_r.tibia_upper_r.torque.Y	femur_med_tibia_r.tibia_upper_r.torque.Z	femur_med_tibia_r.femur_med_r.force.X	femur_med_tibia_r.femur_med_r.force.Y	femur_med_tibia_r.femur_med_r.force.Z	femur_med_tibia_r.femur_med_r.torque.X	femur_med_tibia_r.femur_med_r.torque.Y	femur_med_tibia_r.femur_med_r.torque.Z	femur_lat_tibia_r.tibia_upper_r.force.X	femur_lat_tibia_r.tibia_upper_r.force.Y	femur_lat_tibia_r.tibia_upper_r.force.Z	femur_lat_tibia_r.tibia_upper_r.torque.X	femur_lat_tibia_r.tibia_upper_r.torque.Y	femur_lat_tibia_r.tibia_upper_r.torque.Z	femur_lat_tibia_r.femur_lat_r.force.X	femur_lat_tibia_r.femur_lat_r.force.Y	femur_lat_tibia_r.femur_lat_r.force.Z	femur_lat_tibia_r.femur_lat_r.torque.X	femur_lat_tibia_r.femur_lat_r.torque.Y	femur_lat_tibia_r.femur_lat_r.torque.Z	aACL_R	pACL_R	aPCL_R	pPCL_R	aMCL_R	mMCL_R	pMCL_R	aLCL_R	mLCL_R	pLCL_R	aPCL_L	pPCL_L	aMCL_L	aLCL_L
      0.20693917	      9.78969168	      7.20121995	      7.73134521	      3.34534929	      3.92425096	      4.13899275	      0.00000000	    163.72123991	    177.41132427	    335.92747526	    123.00786195	      7.15471880	      5.19909185	      3.70405020	      3.13168696	      5.21408422	      3.56464145	      2.82094002	     93.01379809	      4.64759915	      7.06763533	      5.29842642	     25.44499669	     16.13410257	      4.58597538	      3.31012696	      5.61313349	     99.31801318	     40.76881492	     29.76255022	     55.03664496	      0.00000000	      0.00000000	      0.00000000	      0.00000000	      0.00000000	      0.00000000	     34.38720846	      2.25713658	      4.78224079	     22.02007061	     48.75199026	     12.22073514	      9.78969168	      7.20121995	      7.73134521	      3.34534929	      3.92425096	      4.13899275	     10.53131320	      5.28405900	     10.34912813	      9.12640643	      1.91004088	      7.15471880	      5.19909185	      3.70405020	      3.13168696	      5.21408422	      4.85660219	      2.82094002	      1.96688289	      4.64759915	      7.06763533	      5.29842642	     25.44499669	     16.13410257	      4.58597538	      3.31012696	      5.61313349	     14.32368685	      0.00000000	      0.00000000	      0.00000000	     19.45587121	      9.09262580	     43.35858654	     47.44129066	      4.25606772	      3.70931217	     11.22047863	      5.94076411	     15.93863544	      2.49566736	      7.90725128	      2.53158986	     31.47864838	     31.47864838	     11.55988986	     11.55988986	     29.10737779	     29.10737779	     91.85987222	     55.94641379	      3.85431534	     -2.80586952	      2.12716381	     36.47962572	    -91.85987222	    -55.94641379	     -3.85431534	      1.43739699	     -2.47734212	      1.21810233	      0.14555254	      0.00093081	     -0.07381526	      0.02936863	     -0.00226402	      0.05790513	     -0.14555254	     -0.00093081	      0.07381526	     -0.00028487	      0.00386250	     -0.00053618	   -917.80963809	   -385.19192562	    320.90530773	     -8.74186862	     22.31159491	      1.99544116	    917.80963809	    385.19192562	   -320.90530773	    136.20304454	    -16.12669002	    369.97556801	   -339.15104690	   -157.19190367	    -92.69020472	      5.13285900	    -11.72488941	      1.10667456	    339.15104690	    157.19190367	     92.69020472	    -41.22883266	      8.31808007	    136.74510967	      0.00000000	      0.00000000	    956.25266064	    600.88770371	     25.45981037	     10.15130688	      0.00000000	      0.00000000	      0.00000000	      0.00000000	      0.00000000	      0.00000000	      0.00000001	      0.00000000
      0.20770061	      9.76742306	      7.18599972	      7.71480268	      3.33857584	      3.91687056	      4.12957429	      0.00000000	    164.11759398	    178.07311659	    336.43765839	    123.00297478	      7.13941873	      5.18866287	      3.69628463	      3.12494773	      5.20186301	      3.54886644	      2.81518897	     93.07911809	      4.63775503	      7.05262611	      5.28698361	     25.41713498	     16.10240746	      4.57648566	      3.30555755	      5.60117052	    108.75945818	     40.93193278	     27.33143128	     55.20181604	      0.00000000	      0.00000000	      0.00000000	      0.00000000	      0.00000000	      0.00000000	     34.27374510	      2.20440881	      4.73910416	     21.86328540	     48.37684095	     12.11093359	      9.76742306	      7.18599972	      7.71480268	      3.33857584	      3.91687056	      4.12957429	     10.54968442	      5.27210546	     10.32328265	      9.10750340	      1.90619159	      7.13941873	      5.18866287	      3.69628463	      3.12494773	      5.20186301	      4.84903947	      2.81518897	      1.96284904	      4.63775503	      7.05262611	      5.28698361	     25.41713498	     16.10240746	      4.57648566	      3.30555755	      5.60117052	     14.28769690	      0.00000000	      0.00000000	      0.00000000	     19.41945646	      9.07450052	     43.24800084	     47.39262670	      4.23306305	      3.68839661	     11.19317051	      5.92525003	     15.90677524	      2.49077708	      7.89666706	      2.52853597	     31.41476712	     31.41476712	     11.53443769	     11.53443769	     29.08442702	     29.08442702	     91.02178443	     54.95756581	      4.28515301	     -2.96845971	      2.11198190	     36.13863304	    -91.02178443	    -54.95756581	     -4.28515301	      1.42802900	     -2.47369390	      1.22095783	      0.10665542	     -0.00085747	     -0.06076766	      0.02416574	     -0.00166158	      0.04243961	     -0.10665542	      0.00085747	      0.06076766	     -0.00021761	      0.00301546	     -0.00042652	   -921.57552691	   -381.33751576	    321.62471111	     -8.61020885	     22.37167482	      2.07900786	    921.57552691	    381.33751576	   -321.62471111	    136.40292991	    -16.17077310	    371.44726844	   -342.11260822	   -155.91973684	    -93.81266735	      5.09808047	    -11.85447564	      1.11836634	    342.11260822	    155.91973684	     93.81266735	    -41.65134803	      8.39520130	    137.93218214	      0.00000000	      0.00000000	    961.99424453	    604.84864318	     25.00338488	      9.86184390	      0.00000000	      0.00000000	      0.00000000	      0.00000000	      0.00000000	      0.00000000	      0.00000001	      0.00000000
      0.20826586	      9.75103514	      7.17479983	      7.70262999	      3.33359122	      3.91143959	      4.12264397	      0.00000000	    164.41197153	    178.52247247	    336.71505440	    122.99251231	      7.12816031	      5.18098799	      3.69056868	      3.11998884	      5.19287042	      3.53741788	      2.81095680	     93.12207091	      4.63051138	      7.04158179	      5.27856372	     25.39663443	     16.07908749	      4.56950238	      3.30219569	      5.59231516	    111.28860510	     41.04131116	     31.44373544	     55.34377344	      0.00000000	      0.00000000	      0.00000000	      0.00000000	      0.00000000	      0.00000000	     34.19262666	      2.16440689	      4.70404659	     21.75472789	     48.11397846	     12.03393621	      9.75103514	      7.17479983	      7.70262999	      3.33359122	      3.91143959	      4.12264397	     10.56200806	      5.26330983	     10.30425208	      9.09359314	      1.90335886	      7.12816031	      5.18098799	      3.69056868	      3.11998884	      5.19287042	      4.84347453	      2.81095680	      1.95988058	      4.63051138	      7.04158179	      5.27856372	     25.39663443	     16.07908749	      4.56950238	      3.30219569	      5.59231516	     14.26120958	      0.00000000	      0.00000000	      0.00000000	     19.39242655	      9.06106223	     43.16646595	     47.35679421	      4.21601902	      3.67300131	     11.17307118	      5.91382876	     15.88330086	      2.48717892	      7.88878446	      2.52624487	     31.36775672	     31.36775672	     11.51570933	     11.51570933	     29.06754017	     29.06754017	     90.59023492	     55.46146303	      4.61588952	     -3.11536167	      2.10285508	     35.94873699	    -90.59023492	    -55.46146303	     -4.61588952	      1.44621379	     -2.47393436	      1.26816291	      0.08519342	     -0.00234956	     -0.05289925	      0.02102136	     -0.00133663	      0.03391247	     -0.08519342	      0.00234956	      0.05289925	     -0.00017230	      0.00253767	     -0.00038873	   -925.36834165	   -378.79031738	    322.55051462	     -8.51696839	     22.43896486	      2.13752785	    925.36834165	    378.79031738	   -322.55051462	    136.71094324	    -16.21829427	    372.94473127	   -344.55544302	   -154.88515016	    -94.28966119	      5.06498919	    -11.94130531	      1.11842010	    344.55544302	    154.88515016	     94.28966119	    -41.81779232	      8.45204879	    138.91615224	      0.00000000	      0.00000000	    966.27127443	    607.84958122	     24.67830112	      9.66703273	      0.00000000	      0.00000000	      0.00000000	      0.00000000	      0.00000000	      0.00000000	      0.00000001	      0.00000000
      0.20849013	      9.74456647	      7.17037920	      7.69782546	      3.33162369	      3.90929595	      4.11990863	      0.00000000	    164.53890161	    178.70285713	    336.86899062	    122.99722913	      7.12371663	      5.17795854	      3.68831224	      3.11803160	      5.18932114	      3.53296512	      2.80928630	     93.14627690	      4.62765234	      7.03722264	      5.27524045	     25.38854319	     16.06988375	      4.56674602	      3.30086889	      5.58880778	    113.35303389	     41.08769395	     31.64072475	     55.40770222	      0.00000000	      0.00000000	      0.00000000	      0.00000000	      0.00000000	      0.00000000	     34.16032213	      2.14846345	      4.68957093	     21.70761029	     48.01250441	     12.00420868	      9.74456647	      7.17037920	      7.69782546	      3.33162369	      3.90929595	      4.11990863	     10.56659971	      5.25983828	     10.29673790	      9.08810264	      1.90224072	      7.12371663	      5.17795854	      3.68831224	      3.11803160	      5.18932114	      4.84127806	      2.80928630	      1.95870888	      4.62765234	      7.03722264	      5.27524045	     25.38854319	     16.06988375	      4.56674602	      3.30086889	      5.58880778	     14.25075405	      0.00000000	      0.00000000	      0.00000000	     19.38170325	      9.05573464	     43.13424683	     47.34264573	      4.20926471	      3.66692435	     11.16513689	      5.90931955	     15.87402851	      2.48575881	      7.88565060	      2.52533018	     31.34920089	     31.34920089	     11.50831738	     11.50831738	     29.06087527	     29.06087527	     90.30659066	     55.84138807	      4.80838295	     -3.20315517	      2.09655595	     35.82615885	    -90.30659066	    -55.84138807	     -4.80838295	      1.45924781	     -2.47270688	      1.29466125	      0.07708991	     -0.00116090	     -0.04842991	      0.01925409	     -0.00120631	      0.03067582	     -0.07708991	      0.00116090	      0.04842991	     -0.00016159	      0.00230899	     -0.00031114	   -926.95287982	   -378.06620799	    323.80585533	     -8.49176419	     22.50063480	      2.16882766	    926.95287982	    378.06620799	   -323.80585533	    137.19589766	    -16.24827359	    373.57012720	   -345.09656995	   -154.65996961	    -94.59822483	      5.05740381	    -11.97050631	      1.13244194	    345.09656995	    154.65996961	     94.59822483	    -41.93596890	      8.46728934	    139.12889774	      0.00000000	      0.00000000	    968.07708635	    609.38642740	     24.49132006	      9.59670282	      0.00000000	      0.00000000	      0.00000000	      0.00000000	      0.00000000	      0.00000000	      0.00000001	      0.00000000
